<?xml version="1.0" encoding="UTF-8"?>
<svg xmlns="http://www.w3.org/2000/svg" xmlns:xlink="http://www.w3.org/1999/xlink" width="409.600006pt" height="409.600006pt" viewBox="0 0 409.600006 409.600006" version="1.1">
<g id="surface1">
<path style=" stroke:none;fill-rule:nonzero;fill:rgb(100%,100%,100%);fill-opacity:1;" d="M 384 102.398438 L 281.601562 102.398438 L 281.601562 76.800781 C 281.601562 62.71875 270.078125 51.199219 256 51.199219 L 153.601562 51.199219 C 139.519531 51.199219 128 62.71875 128 76.800781 L 128 102.398438 L 25.601562 102.398438 C 11.519531 102.398438 0 113.921875 0 128 L 0 358.398438 C 0 372.480469 11.519531 384 25.601562 384 L 384 384 C 398.078125 384 409.601562 372.480469 409.601562 358.398438 L 409.601562 128 C 409.601562 113.921875 398.078125 102.398438 384 102.398438 Z M 153.601562 76.847656 C 153.613281 76.832031 153.628906 76.8125 153.644531 76.800781 L 255.953125 76.800781 C 255.972656 76.8125 255.988281 76.832031 256 76.847656 L 256 102.398438 L 153.601562 102.398438 Z M 384 204.800781 L 332.800781 204.800781 L 332.800781 243.199219 C 332.800781 250.242188 327.039062 256 320 256 L 294.398438 256 C 287.359375 256 281.601562 250.242188 281.601562 243.199219 L 281.601562 204.800781 L 128 204.800781 L 128 243.199219 C 128 250.242188 122.238281 256 115.199219 256 L 89.601562 256 C 82.558594 256 76.800781 250.242188 76.800781 243.199219 L 76.800781 204.800781 L 25.601562 204.800781 L 25.601562 179.199219 L 384 179.199219 Z M 384 204.800781 "/>
</g>
</svg>
