<?xml version="1.0" encoding="UTF-8"?>
<svg xmlns="http://www.w3.org/2000/svg" xmlns:xlink="http://www.w3.org/1999/xlink" width="409.600006pt" height="409.600006pt" viewBox="0 0 409.600006 409.600006" version="1.1">
<g id="surface1">
<path style=" stroke:none;fill-rule:nonzero;fill:rgb(100%,100%,100%);fill-opacity:1;" d="M 204.800781 0 C 91.691406 0 0 91.691406 0 204.800781 C 0 317.90625 91.691406 409.601562 204.800781 409.601562 C 317.90625 409.601562 409.601562 317.90625 409.601562 204.800781 C 409.601562 91.691406 317.90625 0 204.800781 0 Z M 102.398438 102.398438 L 307.199219 102.398438 C 310.855469 102.398438 314.402344 103.183594 317.65625 104.664062 L 204.800781 236.332031 L 91.941406 104.664062 C 95.199219 103.1875 98.746094 102.398438 102.398438 102.398438 Z M 76.800781 281.601562 L 76.800781 128 C 76.800781 127.464844 76.824219 126.929688 76.855469 126.398438 L 151.921875 213.976562 L 77.683594 288.214844 C 77.105469 286.082031 76.800781 283.863281 76.800781 281.601562 Z M 307.199219 307.199219 L 102.398438 307.199219 C 100.136719 307.199219 97.917969 306.894531 95.785156 306.316406 L 168.632812 233.46875 L 204.800781 275.667969 L 240.96875 233.472656 L 313.816406 306.320312 C 311.679688 306.894531 309.460938 307.199219 307.199219 307.199219 Z M 332.800781 281.601562 C 332.800781 283.863281 332.496094 286.078125 331.917969 288.214844 L 257.675781 213.976562 L 332.742188 126.398438 C 332.777344 126.929688 332.800781 127.464844 332.800781 128 Z M 332.800781 281.601562 "/>
</g>
</svg>
